<?xml version="1.0" encoding="UTF-8" standalone="no"?>
<svg xmlns="http://www.w3.org/2000/svg" version="1.2" baseProfile="tiny" viewBox="0.00 0.00 1448.00 1448.00">
<path fill="#00a1ff" d="
  M 1075.47 259.86
  L 1099.43 172.23
  A 0.63 0.63 0.0 0 1 1100.52 172.00
  Q 1102.74 174.74 1103.50 178.51
  Q 1104.64 184.21 1106.25 189.96
  Q 1116.04 224.98 1125.12 258.63
  Q 1125.66 260.66 1127.60 259.84
  L 1210.39 224.43
  A 0.69 0.68 -29.3 0 1 1211.23 224.66
  Q 1211.66 225.26 1211.29 225.76
  Q 1185.35 261.50 1159.12 297.47
  A 2.65 2.65 0.0 0 0 1160.00 301.36
  Q 1198.57 322.20 1236.91 342.56
  Q 1238.55 343.43 1239.66 344.68
  A 0.25 0.25 0.0 0 1 1239.48 345.10
  L 1147.74 349.12
  Q 1146.02 349.20 1146.33 350.89
  L 1162.32 438.74
  Q 1162.55 440.02 1161.39 440.19
  Q 1161.11 440.23 1160.48 439.51
  Q 1131.05 405.98 1101.84 372.57
  Q 1100.60 371.16 1099.37 372.56
  L 1040.04 440.31
  A 0.76 0.76 0.0 0 1 1038.72 439.94
  Q 1038.58 439.03 1038.75 438.10
  Q 1046.73 394.33 1054.67 350.60
  A 1.27 1.27 0.0 0 0 1053.47 349.10
  L 965.43 345.30
  Q 959.87 345.06 964.78 342.43
  L 1042.31 300.90
  Q 1043.82 300.09 1042.81 298.71
  L 989.70 225.57
  A 0.75 0.75 0.0 0 1 990.39 224.38
  Q 991.04 224.45 991.65 224.71
  Q 1032.95 242.36 1074.57 260.30
  A 0.67 0.66 -70.9 0 0 1075.47 259.86
  Z"
/>
<circle fill="#00a1ff" cx="727.97" cy="291.64" r="55.69"/>
<path fill="#00a1ff" d="
  M 630.99 419.77
  Q 630.67 419.48 629.76 419.41
  C 605.67 417.32 581.70 416.47 557.81 419.63
  Q 505.03 426.61 470.32 464.77
  Q 469.94 465.18 469.44 464.95
  Q 468.26 464.39 468.76 463.16
  Q 478.16 440.35 490.41 422.34
  C 504.70 401.33 524.35 385.08 547.92 375.67
  C 575.44 364.68 606.61 363.03 636.31 366.15
  Q 670.88 369.77 707.40 377.32
  Q 742.22 384.52 779.27 392.07
  C 823.14 401.00 869.00 407.19 914.09 403.41
  C 936.70 401.51 958.95 395.80 980.17 387.25
  C 989.67 383.42 998.43 377.55 1007.32 372.21
  Q 1009.03 371.18 1010.65 370.87
  Q 1012.57 370.49 1011.25 371.94
  Q 1008.00 375.50 1004.29 378.89
  Q 980.80 400.32 954.42 414.89
  C 924.08 431.65 890.18 441.32 855.08 443.87
  Q 806.53 447.39 757.66 439.29
  Q 755.84 438.99 755.03 440.63
  Q 639.42 675.17 424.81 825.14
  Q 423.50 826.06 423.99 824.54
  C 424.56 822.73 425.36 821.13 426.73 819.76
  Q 430.38 816.11 433.60 812.10
  C 526.88 696.03 595.51 565.00 631.53 421.59
  A 1.86 1.78 -62.8 0 0 630.99 419.77
  Z"
/>
<path fill="#00a1ff" d="
  M 799.73 1048.33
  Q 801.85 1048.70 804.51 1048.28
  Q 855.97 1040.12 908.77 1026.79
  Q 909.71 1026.55 910.40 1026.75
  A 0.78 0.77 -76.0 0 1 910.94 1027.66
  Q 899.62 1081.52 877.92 1131.86
  C 853.66 1188.14 817.18 1245.85 759.78 1272.78
  Q 748.74 1277.96 736.57 1277.85
  Q 734.50 1277.83 734.50 1275.76
  L 734.52 1065.75
  A 2.13 2.13 0.0 0 0 731.98 1063.66
  L 689.96 1071.95
  A 1.81 1.80 84.4 0 0 688.51 1073.72
  L 688.50 1276.25
  A 1.47 1.47 0.0 0 1 687.13 1277.72
  Q 678.35 1278.28 670.13 1275.28
  Q 644.58 1265.95 621.47 1245.43
  C 594.02 1221.07 573.24 1189.97 556.28 1156.40
  Q 541.87 1127.89 531.52 1098.16
  A 1.72 1.72 0.0 0 0 529.71 1097.02
  L 486.31 1101.76
  Q 485.51 1101.84 485.76 1102.60
  Q 509.45 1174.96 553.64 1236.27
  C 557.22 1241.24 561.72 1245.66 565.77 1250.45
  Q 567.24 1252.19 565.01 1252.62
  Q 564.65 1252.69 563.26 1252.16
  Q 484.52 1222.29 423.65 1165.05
  Q 397.26 1140.25 374.96 1111.76
  C 374.36 1111.00 373.54 1110.34 372.52 1110.29
  Q 265.23 1105.25 160.08 1076.02
  Q 158.19 1075.49 156.37 1074.47
  Q 154.95 1073.68 156.53 1073.33
  Q 158.90 1072.80 161.99 1072.94
  C 170.38 1073.32 178.81 1073.57 187.30 1073.33
  Q 243.38 1071.77 293.02 1066.74
  Q 540.88 1041.67 773.16 950.28
  C 870.69 911.91 961.56 865.52 1045.88 805.52
  Q 1094.30 771.06 1134.81 727.81
  Q 1154.15 707.16 1169.88 683.66
  C 1185.00 661.09 1196.84 635.89 1202.15 609.20
  C 1210.87 565.31 1197.03 524.37 1168.72 491.14
  Q 1167.89 490.16 1168.77 489.42
  A 0.93 0.93 0.0 0 1 1169.72 489.27
  Q 1190.18 497.49 1208.80 507.67
  C 1235.14 522.07 1258.38 539.82 1274.57 564.18
  C 1294.93 594.79 1298.79 631.39 1290.63 667.19
  C 1285.76 688.59 1277.31 708.01 1266.17 727.60
  C 1255.40 746.54 1242.45 765.11 1228.11 782.00
  Q 1187.72 829.59 1136.39 869.94
  C 1133.99 871.83 1133.59 874.12 1133.45 877.42
  Q 1131.30 926.99 1117.40 974.61
  Q 1117.25 975.09 1116.82 975.33
  Q 1115.93 975.82 1114.50 975.82
  Q 1043.63 976.04 974.75 976.16
  C 971.36 976.16 967.39 977.03 964.23 978.63
  Q 886.86 1017.76 805.00 1045.39
  Q 802.21 1046.33 799.64 1047.76
  Q 798.89 1048.18 799.73 1048.33
  Z"
/>
<path fill="#00a1ff" d="
  M 774.47 601.32
  C 768.53 585.01 747.39 580.71 732.41 578.79
  Q 715.15 576.57 694.72 575.53
  Q 693.30 575.46 691.72 575.16
  Q 689.82 574.80 690.95 573.23
  Q 711.80 544.17 734.94 512.09
  Q 735.75 510.96 737.13 510.90
  Q 765.26 509.68 793.20 516.19
  C 803.09 518.49 811.33 521.32 819.50 527.29
  C 836.98 540.08 834.44 560.12 825.94 577.41
  Q 818.16 593.25 806.84 607.13
  Q 779.18 641.06 742.81 673.65
  A 0.97 0.95 -50.2 0 1 741.68 673.76
  L 741.09 673.41
  A 0.66 0.65 -53.3 0 1 740.95 672.40
  Q 752.74 659.51 761.26 646.98
  C 769.48 634.91 779.76 615.87 774.47 601.32
  Z"
/>
<path fill="#ffffff" d="
  M 924.48 854.76
  L 924.47 632.13
  A 2.91 2.91 0.0 0 1 927.38 629.22
  L 1040.82 629.22
  A 2.91 2.91 0.0 0 1 1043.73 632.13
  L 1043.55 782.72
  A 2.91 2.91 0.0 0 1 1042.20 785.18
  L 928.95 857.22
  A 2.91 2.91 0.0 0 1 924.48 854.76
  Z"
/>
<path fill="#ffffff" d="
  M 742.47 938.07
  L 742.48 688.58
  A 2.36 2.36 0.0 0 1 744.84 686.22
  L 859.95 686.23
  A 2.36 2.36 0.0 0 1 862.31 688.59
  L 861.95 889.05
  A 2.36 2.36 0.0 0 1 860.52 891.22
  L 745.76 940.24
  A 2.36 2.36 0.0 0 1 742.47 938.07
  Z"
/>
<path fill="#ffffff" d="
  M 560.75 995.89
  L 560.74 794.55
  A 2.48 2.48 0.0 0 1 563.22 792.07
  L 678.11 792.07
  A 2.48 2.48 0.0 0 1 680.59 794.55
  L 680.51 961.55
  A 2.48 2.48 0.0 0 1 678.74 963.93
  L 563.94 998.27
  A 2.48 2.48 0.0 0 1 560.75 995.89
  Z"
/>
<path fill="#ffffff" d="
  M 379.37 1034.26
  L 379.28 883.09
  A 1.80 1.80 0.0 0 1 381.08 881.29
  L 496.32 881.30
  A 1.80 1.80 0.0 0 1 498.12 883.10
  L 498.00 1012.54
  A 1.80 1.80 0.0 0 1 496.54 1014.31
  L 381.50 1036.03
  A 1.80 1.80 0.0 0 1 379.37 1034.26
  Z"
/>
<path fill="#00a1ff" d="
  M 924.13 1137.13
  Q 946.50 1082.35 957.90 1025.84
  C 958.21 1024.31 958.97 1022.98 960.76 1022.98
  Q 1028.94 1022.92 1091.10 1023.10
  Q 1093.91 1023.11 1096.60 1022.50
  A 1.55 1.55 0.0 0 1 1098.35 1024.65
  C 1090.79 1041.46 1082.16 1058.86 1072.38 1074.80
  Q 996.41 1198.74 860.26 1252.23
  Q 858.59 1252.89 856.86 1252.59
  A 0.60 0.60 0.0 0 1 856.50 1251.61
  C 884.89 1217.42 907.38 1178.13 924.13 1137.13
  Z"
/>
</svg>
