<?xml version="1.0" encoding="UTF-8" standalone="no"?>
<svg xmlns="http://www.w3.org/2000/svg" version="1.2" baseProfile="tiny" viewBox="0.00 0.00 1448.00 1448.00">
<path fill="#00a1ff" d="
  M 1054.69 349.26
  A 0.47 0.47 0.0 0 0 1054.23 348.87
  Q 1033.39 348.92 1012.42 347.48
  C 995.79 346.34 979.53 345.85 962.74 345.81
  A 0.94 0.94 0.0 0 1 961.92 345.33
  Q 961.27 344.15 962.83 343.32
  Q 1002.74 322.15 1041.44 301.12
  Q 1043.72 299.88 1042.19 297.79
  L 989.56 225.64
  A 0.75 0.74 64.7 0 1 989.97 224.48
  Q 990.97 224.22 991.93 224.63
  Q 1033.13 242.41 1072.78 259.38
  Q 1075.20 260.42 1075.90 257.88
  Q 1087.18 217.01 1098.77 174.87
  Q 1099.19 173.33 1099.98 172.07
  A 0.68 0.68 0.0 0 1 1101.15 172.10
  Q 1101.85 173.33 1102.20 174.63
  Q 1113.34 215.03 1124.69 256.80
  Q 1124.97 257.86 1125.36 258.84
  A 1.63 1.62 67.5 0 0 1127.50 259.73
  L 1210.19 224.45
  A 0.83 0.83 0.0 0 1 1211.31 224.97
  Q 1211.52 225.65 1211.10 226.23
  Q 1184.62 262.68 1159.23 297.43
  A 2.68 2.68 0.0 0 0 1160.13 301.37
  L 1239.69 344.08
  A 0.64 0.64 0.0 0 1 1239.41 345.29
  L 1147.55 349.29
  Q 1146.24 349.34 1146.46 350.63
  Q 1153.58 391.76 1161.50 432.72
  Q 1162.25 436.62 1162.21 440.17
  Q 1162.19 441.66 1161.21 440.54
  L 1101.66 372.36
  A 1.36 1.36 0.0 0 0 1099.62 372.36
  L 1039.86 440.62
  Q 1039.16 441.42 1038.46 440.71
  Q 1038.30 440.54 1038.49 439.50
  Q 1046.54 394.86 1054.68 350.24
  Q 1054.77 349.75 1054.69 349.26
  Z"
/>
<circle fill="#00a1ff" cx="727.97" cy="291.69" r="55.75"/>
<path fill="#00a1ff" d="
  M 576.70 418.10
  C 539.07 419.34 504.77 431.52 477.85 457.23
  Q 473.65 461.25 469.70 465.31
  Q 468.09 466.95 468.14 464.67
  Q 468.15 464.39 468.59 463.37
  C 477.86 441.83 489.21 421.35 504.95 404.72
  Q 531.21 376.98 568.74 368.93
  Q 591.48 364.05 616.70 364.84
  C 626.99 365.16 637.69 366.12 648.05 367.44
  Q 682.10 371.78 718.06 379.40
  Q 752.35 386.68 787.43 393.61
  C 827.77 401.58 867.49 406.39 908.05 403.75
  Q 946.30 401.26 981.20 386.59
  C 990.83 382.54 999.65 376.54 1008.81 371.32
  Q 1010.29 370.47 1010.42 370.44
  Q 1013.70 369.64 1011.32 372.03
  Q 955.94 427.65 880.27 441.09
  Q 854.79 445.61 824.84 445.14
  Q 790.82 444.61 756.82 439.65
  A 1.58 1.58 0.0 0 0 755.17 440.51
  Q 640.02 674.63 425.41 824.79
  Q 422.09 827.12 424.38 823.77
  C 429.96 815.63 437.93 807.00 442.81 800.64
  Q 471.85 762.81 496.95 724.99
  C 558.47 632.29 604.25 530.08 631.20 422.51
  Q 631.93 419.61 628.99 419.37
  Q 602.98 417.23 576.70 418.10
  Z"
/>
<path fill="#00a1ff" d="
  M 801.05 1047.94
  Q 800.66 1048.13 801.00 1048.40
  L 801.28 1048.63
  Q 801.81 1049.05 802.41 1048.74
  C 805.92 1046.96 809.81 1047.26 813.64 1046.62
  Q 862.12 1038.59 908.95 1026.53
  A 1.65 1.65 0.0 0 1 910.98 1028.47
  Q 898.89 1084.82 875.76 1136.97
  C 860.01 1172.51 840.78 1205.11 814.73 1232.56
  C 798.66 1249.50 779.75 1263.98 758.70 1273.39
  Q 748.12 1278.13 736.40 1277.74
  Q 734.34 1277.67 734.34 1275.60
  Q 734.49 1169.34 734.46 1066.26
  Q 734.46 1063.42 731.67 1063.97
  L 690.47 1072.14
  A 2.43 2.43 0.0 0 0 688.52 1074.52
  L 688.53 1276.55
  A 1.14 1.13 88.4 0 1 687.46 1277.69
  Q 674.83 1278.41 663.55 1273.09
  C 626.57 1255.66 597.66 1225.46 575.55 1190.91
  C 557.19 1162.20 542.94 1130.90 531.62 1098.69
  A 2.05 2.05 0.0 0 0 529.46 1097.33
  L 486.97 1102.01
  Q 485.68 1102.15 486.09 1103.38
  Q 501.19 1149.15 523.55 1189.78
  Q 541.66 1222.70 565.44 1250.26
  C 566.25 1251.20 566.58 1252.48 566.23 1253.67
  A 0.66 0.66 0.0 0 1 565.27 1254.06
  C 563.01 1252.80 560.82 1251.48 558.40 1250.51
  Q 448.24 1206.42 376.10 1112.86
  Q 373.82 1109.91 369.75 1109.87
  C 366.34 1109.83 362.96 1110.02 359.54 1109.82
  Q 258.31 1103.90 160.19 1076.19
  Q 158.22 1075.63 156.46 1074.70
  Q 154.74 1073.79 156.63 1073.36
  Q 158.27 1072.99 159.91 1073.02
  Q 196.02 1073.70 238.08 1070.93
  C 379.81 1061.57 518.90 1034.67 654.79 991.89
  Q 785.93 950.60 903.67 891.29
  Q 976.34 854.68 1043.19 807.34
  Q 1093.88 771.44 1134.22 728.34
  C 1174.32 685.49 1211.41 627.14 1203.66 566.05
  C 1200.29 539.54 1187.89 513.95 1170.58 493.80
  Q 1169.14 492.13 1168.00 490.03
  A 0.77 0.77 0.0 0 1 1168.72 488.90
  Q 1170.01 488.96 1171.18 489.48
  Q 1187.11 496.47 1204.35 505.14
  C 1248.50 527.36 1287.05 564.60 1293.63 615.00
  C 1297.52 644.86 1290.67 677.57 1277.63 705.53
  C 1261.16 740.84 1237.40 773.57 1210.51 802.47
  Q 1176.64 838.88 1135.32 871.00
  C 1134.37 871.74 1133.79 873.12 1133.75 874.32
  Q 1131.92 925.44 1117.40 975.17
  A 1.32 1.31 -81.5 0 1 1116.13 976.12
  Q 1044.35 975.80 974.25 976.30
  C 970.55 976.33 966.50 977.71 962.80 979.59
  Q 888.68 1017.35 809.80 1043.74
  C 806.62 1044.81 804.04 1046.44 801.05 1047.94
  Z"
/>
<path fill="#00a1ff" d="
  M 775.73 512.70
  C 798.67 515.58 834.82 524.65 832.47 554.58
  C 831.23 570.49 822.82 586.02 813.32 598.94
  C 795.85 622.69 773.28 645.39 750.73 666.38
  Q 746.47 670.35 741.93 673.39
  Q 741.52 673.67 741.15 673.33
  Q 741.11 673.30 741.10 673.25
  Q 741.07 673.09 741.16 672.98
  C 753.51 658.37 765.41 643.21 772.56 625.86
  C 777.45 614.01 778.13 600.64 767.64 591.59
  C 759.33 584.43 748.45 581.41 737.16 579.63
  Q 714.06 576.00 692.08 575.90
  Q 690.26 575.89 690.51 574.08
  Q 690.58 573.58 690.87 573.17
  Q 712.50 543.12 734.79 512.28
  C 736.12 510.44 737.51 510.56 739.58 510.53
  Q 756.81 510.33 775.73 512.70
  Z"
/>
<path fill="#000000" d="
  M 924.31 854.34
  L 924.31 632.25
  A 3.26 3.26 0.0 0 1 927.57 628.99
  L 1040.53 628.96
  A 3.26 3.26 0.0 0 1 1043.79 632.22
  L 1043.66 782.63
  A 3.26 3.26 0.0 0 1 1042.15 785.38
  L 929.32 857.09
  A 3.26 3.26 0.0 0 1 924.31 854.34
  Z"
/>
<path fill="#000000" d="
  M 742.47 937.89
  L 742.50 688.29
  A 2.50 2.50 0.0 0 1 745.01 685.79
  L 859.80 686.30
  A 2.50 2.50 0.0 0 1 862.29 688.80
  L 862.40 888.93
  A 2.50 2.50 0.0 0 1 860.88 891.23
  L 745.95 940.19
  A 2.50 2.50 0.0 0 1 742.47 937.89
  Z"
/>
<path fill="#000000" d="
  M 560.66 996.07
  L 560.70 794.38
  A 2.41 2.41 0.0 0 1 563.11 791.97
  L 678.33 791.98
  A 2.41 2.41 0.0 0 1 680.74 794.39
  L 680.64 961.73
  A 2.41 2.41 0.0 0 1 678.92 964.04
  L 563.76 998.38
  A 2.41 2.41 0.0 0 1 560.66 996.07
  Z"
/>
<path fill="#000000" d="
  M 379.04 1033.03
  L 379.04 883.98
  A 2.94 2.94 0.0 0 1 381.97 881.04
  L 495.34 880.72
  A 2.94 2.94 0.0 0 1 498.29 883.66
  L 498.21 1011.66
  A 2.94 2.94 0.0 0 1 495.82 1014.55
  L 382.52 1035.92
  A 2.94 2.94 0.0 0 1 379.04 1033.03
  Z"
/>
<path fill="#00a1ff" d="
  M 905.62 1176.79
  C 929.92 1128.55 946.82 1078.51 957.84 1025.55
  C 958.15 1024.06 959.49 1022.97 960.99 1022.97
  Q 1028.86 1023.00 1096.47 1023.00
  A 2.11 1.87 -9.1 0 1 1098.39 1024.22
  Q 1098.56 1024.68 1098.05 1025.76
  C 1092.71 1037.12 1087.47 1048.30 1081.56 1059.15
  C 1032.86 1148.50 952.92 1217.82 857.44 1253.43
  Q 856.88 1253.64 856.29 1253.55
  A 0.80 0.79 24.4 0 1 855.80 1252.26
  Q 885.13 1217.48 905.62 1176.79
  Z"
/>
</svg>
